<?xml version="1.0" encoding="UTF-8" standalone="no"?>
<!-- Created with Inkscape (http://www.inkscape.org/) -->

<svg
   xmlns:dc="http://purl.org/dc/elements/1.1/"
   xmlns:cc="http://creativecommons.org/ns#"
   xmlns:rdf="http://www.w3.org/1999/02/22-rdf-syntax-ns#"
   xmlns:svg="http://www.w3.org/2000/svg"
   xmlns="http://www.w3.org/2000/svg"
   xmlns:sodipodi="http://sodipodi.sourceforge.net/DTD/sodipodi-0.dtd"
   xmlns:inkscape="http://www.inkscape.org/namespaces/inkscape"
   width="210mm"
   height="297mm"
   viewBox="0 0 210 297"
   version="1.1"
   id="svg7201"
   inkscape:version="0.92.2 (5c3e80d, 2017-08-06)"
   sodipodi:docname="TlugProcessing_Logo.svg">
  <defs
     id="defs7195" />
  <sodipodi:namedview
     id="base"
     pagecolor="#ffffff"
     bordercolor="#666666"
     borderopacity="1.0"
     inkscape:pageopacity="0.0"
     inkscape:pageshadow="2"
     inkscape:zoom="0.7"
     inkscape:cx="98.30154"
     inkscape:cy="568.29411"
     inkscape:document-units="mm"
     inkscape:current-layer="layer1"
     showgrid="false"
     inkscape:window-width="1920"
     inkscape:window-height="1138"
     inkscape:window-x="-8"
     inkscape:window-y="-8"
     inkscape:window-maximized="1" />
  <metadata
     id="metadata7198">
    <rdf:RDF>
      <cc:Work
         rdf:about="">
        <dc:format>image/svg+xml</dc:format>
        <dc:type
           rdf:resource="http://purl.org/dc/dcmitype/StillImage" />
        <dc:title></dc:title>
      </cc:Work>
    </rdf:RDF>
  </metadata>
  <g
     inkscape:label="Layer 1"
     inkscape:groupmode="layer"
     id="layer1">
    <g
       transform="matrix(2.0856532,0,0,2.0856532,-503.70591,-951.77179)"
       id="g7171"
       inkscape:export-xdpi="4.4304981"
       inkscape:export-ydpi="4.4304981">
      <path
         id="rect815-6-8-2"
         d="m 254.97978,504.4736 c -3.59042,0 -6.48074,2.89031 -6.48074,6.48073 v 50.23104 c 0,3.59042 2.89032,6.48126 6.48074,6.48126 h 71.746 c 3.59042,0 6.48076,-2.89084 6.48076,-6.48126 v -50.23104 c 0,-3.59042 -2.89034,-6.48073 -6.48076,-6.48073 z m 23.52518,5.00433 c 0.68453,0.0138 0.98915,0.15819 1.07075,0.47027 0.0708,0.27085 0.13025,0.30075 0.28731,0.14364 0.30353,-0.30353 0.90641,-0.23619 1.09863,0.12301 0.0948,0.17687 0.30839,0.32194 0.47492,0.32194 0.43194,0 0.81132,0.16759 0.81132,0.35864 0,0.0961 -0.19894,0.1242 -0.48059,0.0677 -0.41703,-0.0833 -0.49374,-0.0421 -0.58293,0.31316 -0.0575,0.22939 -0.023,0.48863 0.0786,0.59015 0.0996,0.0996 0.18087,0.33319 0.18087,0.51882 0,0.23979 0.16343,0.39648 0.56327,0.54105 0.47665,0.17237 0.53853,0.24908 0.40412,0.50024 -0.17293,0.32317 0.16867,1.37399 0.48059,1.47794 0.0932,0.0311 0.20434,0.52456 0.24649,1.09657 0.0625,0.84883 0.15097,1.10939 0.48265,1.41697 0.33221,0.30806 0.5008,0.35444 0.92348,0.25424 0.2844,-0.0674 0.57134,-0.1089 0.63767,-0.092 0.0664,0.0169 0.12091,-0.0417 0.12091,-0.13023 0,-0.26432 0.35843,-0.18513 1.20613,0.26615 0.84447,0.4495 1.75091,0.52676 2.35956,0.201 0.2686,-0.14369 0.39169,-0.1179 0.64389,0.13436 0.30173,0.30175 0.33898,0.30287 1.14617,0.0357 0.82503,-0.27318 0.83603,-0.27239 0.9865,0.0661 0.22283,0.50112 0.21236,0.49503 0.94311,0.50332 0.6581,0.008 0.67225,0.0196 0.62219,0.51625 -0.0642,0.63807 0.21458,1.19121 0.53795,1.06712 0.16648,-0.0639 0.2117,-0.0175 0.14727,0.15039 -0.0603,0.15705 0.13729,0.42817 0.56068,0.76843 0.35975,0.28908 0.65423,0.59034 0.65423,0.66921 0,0.0789 -0.0654,0.10255 -0.1452,0.0532 -0.11427,-0.0706 -0.43333,0.51289 -0.56637,1.0356 -0.0119,0.0443 -0.14644,0.26913 -0.30078,0.49972 -0.197,0.29432 -0.38766,0.39941 -0.63923,0.35346 -0.2668,-0.0487 -0.40814,0.0453 -0.55449,0.36742 -0.21629,0.47612 -0.1489,0.70901 0.20569,0.70901 0.12742,0 0.23201,0.10268 0.23201,0.22788 0,0.33634 0.35227,0.39757 0.76121,0.13229 0.33507,-0.21738 0.36997,-0.20428 0.52192,0.19535 0.0897,0.23566 0.2354,0.3834 0.32401,0.32866 0.0885,-0.0547 0.16327,-0.0406 0.16536,0.031 0,0.0716 0.0686,0.4096 0.1478,0.75136 0.12745,0.54925 0.10739,0.63085 -0.17362,0.70435 -0.22061,0.0577 -0.28358,0.16251 -0.20569,0.34314 0.0616,0.14303 0.14647,0.4613 0.18862,0.70694 0.0968,0.56502 0.4132,0.73276 1.38338,0.73276 0.54443,0 0.8623,-0.0903 1.07746,-0.3054 0.23791,-0.23792 0.39174,-0.27223 0.69712,-0.15606 0.21551,0.082 0.45784,0.26562 0.53795,0.40876 0.13182,0.23553 0.16518,0.23664 0.35399,0.008 0.44101,-0.53141 1.40488,-0.12311 1.5513,0.65733 0.0703,0.37455 0.189,0.53848 0.39122,0.53848 0.45005,0 0.79941,0.17449 0.79941,0.39944 0,0.11227 0.1162,0.30054 0.25839,0.4186 0.21767,0.18063 0.28766,0.1747 0.44339,-0.0383 0.13526,-0.18492 0.28546,-0.21595 0.55758,-0.11522 0.20656,0.0765 0.49237,0.0764 0.64183,0 0.14809,-0.0757 0.5343,-0.1782 0.85833,-0.22792 0.6145,-0.0944 0.92964,0.10885 1.15652,0.7457 0.0691,0.19394 0.19783,0.26287 0.36846,0.19741 0.1442,-0.0553 0.47112,-0.008 0.72658,0.10388 0.38256,0.16848 0.45645,0.28926 0.4196,0.68521 -0.0364,0.39159 0.0188,0.48435 0.29559,0.49972 0.48572,0.0269 0.70509,0.19923 0.6005,0.47181 -0.0715,0.18618 0.0571,0.2337 0.60976,0.22479 0.38531,-0.007 0.84529,-0.0683 1.02216,-0.13798 0.29533,-0.11615 1.01053,0.0769 1.20563,0.32557 0.17309,0.22058 0.88993,0.0519 1.00769,-0.2372 0.11475,-0.28144 0.15042,-0.27281 0.52245,0.12866 0.21968,0.23707 0.39944,0.53597 0.39944,0.66406 0,0.12805 0.0612,0.23307 0.13592,0.23307 0.26318,0 0.66817,-0.59299 0.66817,-0.97825 0,-0.21439 0.25324,-0.74599 0.56275,-1.18131 0.30951,-0.43534 0.56277,-0.95046 0.56277,-1.14517 0,-0.43259 -0.35399,-0.7543 -0.68885,-0.62579 -0.20912,0.0803 -0.22651,0 -0.11162,-0.50747 0.15689,-0.69527 0.68341,-1.45185 0.96377,-1.38494 0.10564,0.0251 0.28979,-0.0352 0.40928,-0.13435 0.25133,-0.20857 0.55293,-0.0732 0.55293,0.24805 0,0.25431 0.55811,0.47455 0.80925,0.31937 0.0931,-0.0574 0.25929,-0.0299 0.36896,0.061 0.12515,0.10401 0.42172,0.11515 0.79687,0.0305 0.45768,-0.10319 0.59738,-0.0849 0.59738,0.0791 0,0.12351 0.21902,0.2355 0.51779,0.26458 0.46882,0.0456 0.52083,0.1039 0.5457,0.61341 0.0146,0.30951 0.0353,0.68914 0.045,0.84386 0.0177,0.29062 0.49919,0.40669 0.49919,0.12042 0,-0.0883 0.0607,-0.16071 0.13435,-0.16071 0.18688,0 0.1764,0.52094 -0.0151,0.76377 -0.0873,0.11049 -0.0952,0.20709 -0.018,0.21444 0.70263,0.067 0.89895,0.12925 1.16324,0.36846 0.26665,0.24133 0.31533,0.24517 0.39791,0.03 0.23627,-0.61568 0.78792,0.34531 0.82475,1.43711 0.004,0.0884 0.16111,0.30732 0.3514,0.48628 0.27289,0.25665 0.30678,0.37558 0.16073,0.56277 -0.19452,0.24924 -0.38745,0.29927 -1.52757,0.39687 -0.3846,0.0329 -0.7397,0.10036 -0.78909,0.14986 -0.0492,0.0492 -0.18386,0.0116 -0.29869,-0.0837 -0.24757,-0.20545 -0.54414,-0.0603 -0.54414,0.26612 0,0.12745 -0.13343,0.23151 -0.29663,0.23151 -0.44648,0 -1.15083,0.9824 -1.15083,1.60559 0,0.18058 -0.10626,0.32401 -0.24082,0.32401 -0.13264,0 -0.24133,-0.10874 -0.24133,-0.24132 0,-0.26938 -0.25082,-0.32449 -0.3974,-0.0873 -0.0522,0.0847 -0.19783,0.11414 -0.32298,0.0661 -0.29737,-0.11403 -1.03685,0.42921 -1.04333,0.76637 -0.007,0.29959 -0.71147,0.49363 -0.94517,0.25993 -0.0968,-0.0968 -0.27602,-0.0305 -0.48731,0.18087 -0.18505,0.18507 -0.44231,0.29257 -0.57722,0.24082 -0.33305,-0.12777 -0.45566,0.27239 -0.24961,0.81441 0.13754,0.36153 0.24686,0.43363 0.56896,0.37206 0.46342,-0.0885 0.49104,0 0.15349,0.47956 -0.14322,0.20452 -0.34488,0.31236 -0.48421,0.25892 -0.33412,-0.12824 -0.71726,0.23381 -0.71726,0.67799 0,0.42114 0.2667,0.64728 0.68315,0.57878 0.30305,-0.0498 0.38079,0.29258 0.12454,0.5488 -0.27112,0.27114 0.38259,1.13411 0.94414,1.24642 0.2744,0.0548 0.49919,0.2 0.49919,0.32195 0,0.26646 -0.71932,1.0723 -0.95705,1.0723 -0.0926,0 -0.16846,0.0966 -0.16846,0.21495 0,0.25249 -1.06088,0.34137 -1.20923,0.10131 -0.19357,-0.31319 -0.3869,-0.14137 -0.49609,0.44079 -0.10224,0.54478 -0.12324,0.56476 -0.24702,0.22995 -0.0963,-0.26035 -0.24101,-0.35131 -0.49868,-0.31469 -0.29054,0.0412 -0.35351,0.13962 -0.31626,0.49506 0.037,0.35187 -0.0405,0.47694 -0.37362,0.60357 -0.60592,0.23037 -0.46201,0.69784 0.24855,0.80822 l 0.56121,0.0873 -0.56274,0.0966 c -0.30954,0.053 -0.63172,0.0319 -0.71573,-0.047 -0.32078,-0.30149 -0.70972,-0.14883 -0.7612,0.29869 -0.0368,0.32014 -0.1528,0.45648 -0.42117,0.49453 -0.5244,0.0743 -0.90164,-0.26138 -0.64336,-0.57256 0.33782,-0.40706 0.28932,-0.75419 -0.15502,-1.10897 -0.36483,-0.29128 -0.39814,-0.38071 -0.21963,-0.59584 0.21495,-0.25898 0.1283,-0.58913 -0.15502,-0.58913 -0.26003,0 -0.82981,0.60661 -0.72657,0.77362 0.0528,0.0851 -0.0116,0.24416 -0.14367,0.35346 -0.13165,0.1093 -0.23926,0.13766 -0.23926,0.063 0,-0.0747 -0.11245,0.0251 -0.25011,0.22169 -0.13766,0.19651 -0.35645,0.35708 -0.48578,0.35708 -0.17081,0 -0.20746,0.11057 -0.13382,0.4041 0.11771,0.46905 -0.15886,0.88212 -0.59119,0.88212 -0.44733,0 -0.65693,0.51618 -0.45011,1.1095 0.13883,0.39818 0.26461,0.49816 0.62685,0.49816 0.24927,0 0.48972,-0.09 0.53433,-0.2005 0.0446,-0.11049 0.087,-0.0467 0.0941,0.14211 0.007,0.18881 0.19336,0.4618 0.41444,0.60669 0.44911,0.29424 0.52787,0.57721 0.16071,0.57721 -0.21312,0 -0.30834,0.18175 -0.26561,0.50695 0.008,0.0575 -0.22908,0.22029 -0.52608,0.3612 -0.85476,0.40564 -0.86053,0.92856 -0.013,1.08678 0.26088,0.0487 0.20918,0.11337 -0.2744,0.34311 -0.32787,0.15574 -0.64267,0.35888 -0.69969,0.45114 -0.25852,0.41831 -0.79343,0.43265 -1.32188,0.0357 -0.6077,-0.45667 -1.31625,-0.40357 -1.91257,0.14367 -0.19243,0.17655 -0.43082,0.27141 -0.52967,0.21031 -0.0988,-0.061 -0.26697,-0.0431 -0.37362,0.0403 -0.1066,0.0833 -0.54642,0.23744 -0.97721,0.34261 -0.66546,0.16243 -0.8246,0.1537 -1.05781,-0.0574 -0.37695,-0.34113 -0.98504,-0.31758 -1.07899,0.0419 -0.0418,0.15964 -0.28779,0.37078 -0.54727,0.4687 -0.42082,0.15886 -0.4718,0.14449 -0.4718,-0.13332 0,-0.21725 -0.14566,-0.34081 -0.48009,-0.40772 -0.26384,-0.0528 -0.43947,-0.16153 -0.39015,-0.24133 0.0492,-0.0798 0.0414,-0.36653 -0.018,-0.6377 -0.0868,-0.39555 -0.17302,-0.47662 -0.43461,-0.40822 -0.17933,0.0469 -0.49763,-0.0267 -0.70744,-0.16434 -0.30702,-0.20116 -0.38137,-0.39023 -0.38137,-0.96686 0,-0.43178 0.0985,-0.81513 0.24804,-0.96481 0.21622,-0.21621 0.21887,-0.29255 0.0206,-0.59118 -0.12515,-0.18867 -0.39941,-0.3619 -0.60978,-0.38447 -1.15914,-0.12432 -1.64873,-0.10056 -1.70998,0.0832 -0.0364,0.10929 -0.16875,0.19946 -0.29403,0.19946 -0.13573,0 -0.22738,0.16196 -0.22738,0.40151 0,0.25011 -0.0913,0.40206 -0.24133,0.40206 -0.13264,0 -0.24133,0.0769 -0.24133,0.17052 0,0.0936 -0.0605,0.13298 -0.13435,0.0873 -0.0739,-0.0457 -0.34536,-0.0265 -0.60307,0.0424 -0.41624,0.11145 -0.46865,0.19572 -0.47027,0.75655 0,0.34724 0.0913,0.70414 0.20466,0.79272 0.18079,0.14126 0.21555,0.4667 0.18912,1.7539 -0.004,0.16891 0.0641,0.35052 0.14986,0.40359 0.0859,0.053 0.20368,0.28491 0.26149,0.51523 0.0777,0.30998 0.0344,0.44537 -0.1664,0.52244 -0.22029,0.0845 -0.23378,0.14936 -0.0724,0.34364 0.15788,0.19029 0.15708,0.23927 -0.004,0.23927 -0.1473,0 -0.17553,0.19671 -0.10335,0.72347 0.062,0.45188 0.0373,0.72345 -0.0656,0.72345 -0.10152,0 -0.12438,0.21667 -0.0595,0.56277 0.12515,0.66757 -0.007,0.69734 -0.7281,0.16484 -0.48406,-0.35711 -0.55865,-0.37105 -0.72761,-0.14002 -0.14809,0.20262 -0.25754,0.21976 -0.51572,0.0816 -0.18037,-0.0966 -0.3736,-0.1297 -0.42945,-0.0739 -0.0558,0.0558 -0.10179,-0.013 -0.10179,-0.15296 0,-0.13994 -0.0905,-0.28662 -0.20103,-0.32607 -0.13784,-0.0492 -0.0789,-0.20463 0.18706,-0.49403 l 0.3881,-0.4222 -0.30385,-0.56483 c -0.16725,-0.31052 -0.38838,-0.5643 -0.49144,-0.5643 -0.10305,0 -0.22921,-0.10875 -0.28009,-0.24133 -0.13411,-0.34965 -0.76025,-0.30171 -0.85629,0.0656 -0.10269,0.39283 -0.71782,0.56677 -0.94258,0.26665 -0.0928,-0.12385 -0.43654,-0.27554 -0.76378,-0.33695 -0.50019,-0.094 -0.59478,-0.0669 -0.59478,0.16746 0,0.22952 -0.0429,0.24347 -0.24133,0.0785 -0.13263,-0.11002 -0.24132,-0.28737 -0.24132,-0.39376 0,-0.10649 -0.16952,-0.35314 -0.37724,-0.54829 -0.32068,-0.30126 -0.44591,-0.3293 -0.82683,-0.1845 -0.3643,0.13851 -0.50678,0.11838 -0.75758,-0.1085 -0.25138,-0.22749 -0.33393,-0.23927 -0.44286,-0.063 -0.0808,0.13083 -0.29927,0.18468 -0.55192,0.13642 -0.24503,-0.0469 -0.49305,0.0119 -0.59944,0.13901 -0.0997,0.12028 -0.34316,0.2186 -0.54105,0.2186 -0.19785,0 -0.49543,0.18095 -0.66145,0.40203 -0.214,0.28493 -0.45495,0.40204 -0.82683,0.40204 -0.45558,0 -0.52451,0.054 -0.52451,0.41134 0,0.23337 0.0695,0.36849 0.16071,0.31213 0.21664,-0.13393 0.2028,0.0148 -0.0398,0.42117 -0.17143,0.28691 -0.15648,0.3634 0.10181,0.52038 0.16658,0.10128 0.5212,0.36221 0.78806,0.58034 0.26683,0.21809 0.63646,0.39907 0.82164,0.40203 0.18523,0.004 0.33708,0.1048 0.33745,0.22582 0,0.1211 0.25376,0.30152 0.56327,0.40153 0.43257,0.13981 0.5743,0.28107 0.61238,0.61029 0.062,0.53589 -0.55005,0.81762 -0.85887,0.39534 -0.21661,-0.29625 -0.71778,-0.35282 -0.71778,-0.0811 0,0.17775 -0.45612,0.13547 -0.99685,-0.0925 -0.2345,-0.0988 -0.27964,0.008 -0.32141,0.76223 -0.0462,0.83492 -0.066,0.87067 -0.41032,0.74258 v 0 c -0.19897,-0.074 -0.36174,-0.20947 -0.36174,-0.30075 0,-0.0913 -0.14454,-0.16589 -0.32141,-0.16589 -0.17688,0 -0.32195,-0.075 -0.32195,-0.1664 0,-0.11472 -0.0963,-0.11472 -0.31059,0 -0.4925,0.26358 -0.93004,0.1972 -1.02214,-0.15502 -0.0462,-0.17677 -0.0183,-0.36168 0.062,-0.41135 0.0855,-0.0529 0.0764,-0.22137 -0.0222,-0.40565 -0.0928,-0.17333 -0.12485,-0.38574 -0.0713,-0.47234 0.0536,-0.0866 0.0383,-0.15833 -0.0331,-0.15864 -0.0716,0 -0.1297,-0.48869 -0.1297,-1.08519 v -1.08418 l -0.56277,-0.1664 c -0.35171,-0.10398 -0.56364,-0.26765 -0.5648,-0.43614 -0.004,-0.4069 -0.33539,-0.6649 -0.67078,-0.52038 -0.57626,0.24828 -0.84727,0.24561 -0.75033,-0.007 0.0638,-0.16621 -0.0631,-0.29535 -0.40772,-0.41547 -0.36801,-0.12825 -0.50075,-0.27432 -0.50075,-0.55139 0,-0.44757 -0.27713,-0.66493 -0.52814,-0.41392 -0.19052,0.19053 -0.9593,0.2454 -1.12447,0.0801 -0.0544,-0.0544 0.0222,-0.28374 0.17052,-0.51004 0.18304,-0.27934 0.21085,-0.43098 0.0868,-0.47233 -0.49062,-0.16354 -1.28561,-1.19642 -1.58128,-2.05412 -0.11594,-0.33613 -0.25533,-0.46702 -0.45993,-0.43151 -0.16145,0.028 -0.57428,-0.13472 -0.91726,-0.36174 -0.343,-0.22698 -0.76279,-0.41238 -0.93326,-0.41238 -0.22709,0 -0.2884,-0.0831 -0.22894,-0.31056 0.0528,-0.20151 -0.0372,-0.3841 -0.25631,-0.52092 -0.18555,-0.11594 -0.33745,-0.30202 -0.33745,-0.41341 0,-0.11131 -0.18094,-0.20256 -0.40203,-0.20256 -0.22109,0 -0.40153,0.0545 -0.40153,0.12091 0,0.0664 -0.23556,0.12041 -0.52298,0.12041 -0.35729,0 -0.52244,-0.0765 -0.52244,-0.24132 0,-0.13264 -0.16245,-0.26424 -0.36122,-0.2925 -0.26528,-0.0376 -0.40359,0.0591 -0.51883,0.36227 -0.0864,0.2272 -0.23253,0.41288 -0.32505,0.41288 -0.0924,0 -0.25068,0.18098 -0.3514,0.40206 -0.19334,0.42429 -0.45382,0.54012 -0.45216,0.20101 7.9e-4,-0.11049 0.11324,-0.41651 0.25063,-0.68006 0.16129,-0.30914 0.18945,-0.49975 0.0796,-0.53639 -0.0937,-0.0312 -0.17054,-0.36145 -0.17054,-0.73433 0,-0.37287 -0.0837,-0.76218 -0.18603,-0.86455 -0.29322,-0.29324 0.13217,-0.70149 0.60668,-0.5824 0.44354,0.11134 0.49865,-0.13758 0.19017,-0.85574 -0.45922,-1.06934 -0.73111,-1.30744 -1.495,-1.30744 -0.39651,0 -0.76227,0.0667 -0.81235,0.1478 -0.0501,0.0811 -0.23383,0.14729 -0.40825,0.14729 -0.37888,0 -0.58438,0.43 -0.32814,0.68625 0.33292,0.3329 0.21463,0.76068 -0.21032,0.76068 -0.21586,0 -0.44113,-0.0781 -0.50023,-0.17362 -0.0591,-0.0955 -0.27038,-0.13261 -0.46974,-0.0827 -0.33316,0.0837 -0.36273,0.0356 -0.36484,-0.59015 -7.9e-4,-0.5638 0.0842,-0.75602 0.50075,-1.11826 0.41657,-0.36237 0.46241,-0.46426 0.26613,-0.59428 -0.20255,-0.13425 -0.18802,-0.21114 0.1018,-0.52763 0.50926,-0.55605 0.60561,-1.04569 0.29766,-1.51567 -0.25413,-0.38783 -0.25126,-0.40968 0.0693,-0.4935 0.26712,-0.0698 0.33216,-0.20682 0.31832,-0.67127 -0.0332,-1.11496 0.16863,-1.49887 0.81649,-1.5534 0.13264,-0.0119 0.39672,-0.0329 0.58704,-0.0481 0.41741,-0.0332 0.85194,-0.99219 0.44959,-0.99219 -0.35964,0 -0.27607,-0.28612 0.16898,-0.57775 0.64344,-0.42158 0.51238,-0.8582 -0.5209,-1.73579 -0.29292,-0.24879 -0.4014,-0.26686 -0.60151,-0.10078 -0.13425,0.11144 -0.24317,0.13962 -0.24185,0.0625 0.007,-0.3384 0.28989,-0.52223 0.96015,-0.62219 0.39547,-0.0589 0.77467,-0.14184 0.84285,-0.18397 0.20028,-0.12385 0.14225,-0.3793 -0.0863,-0.3793 -0.23544,0 -0.7557,-1.0667 -0.75189,-1.54152 0.005,-0.61449 0.20517,-0.72138 1.05265,-0.56171 0.48624,0.0916 0.81467,0.0921 0.8475,0 0.0924,-0.25651 0.30711,-0.16277 0.39481,0.17259 0.0616,0.23598 0.21946,0.32194 0.59221,0.32194 0.67687,0 1.05739,-0.22315 1.33738,-0.78443 0.21447,-0.42987 0.2037,-0.50075 -0.14365,-0.94464 -0.21357,-0.2729 -0.59438,-0.52369 -0.88265,-0.58137 -0.42149,-0.0843 -0.47424,-0.14055 -0.31263,-0.33539 0.10695,-0.12875 0.14505,-0.31422 0.0847,-0.41185 -0.12858,-0.20791 0.2164,-1.12294 0.42322,-1.12294 0.0777,0 0.14108,-0.11745 0.14108,-0.26096 0,-0.20632 0.0474,-0.22138 0.22685,-0.0723 0.16661,0.1383 0.25657,0.14002 0.33849,0.008 0.15655,-0.25328 0.20153,-1.12487 0.0625,-1.21078 -0.19833,-0.12256 0.0412,-0.71671 0.35709,-0.88575 0.40827,-0.21849 0.39851,-0.79322 -0.013,-0.79322 -0.17325,0 -0.49244,-0.19127 -0.709,-0.42479 -0.2712,-0.29252 -0.49792,-0.39701 -0.72967,-0.33642 -0.22921,0.06 -0.33641,0.013 -0.33641,-0.14986 0,-0.15118 -0.13147,-0.22307 -0.36173,-0.1974 -0.19899,0.0222 -0.60376,-0.0161 -0.89917,-0.0847 -0.41585,-0.097 -0.51942,-0.19216 -0.45941,-0.42166 0.0438,-0.16722 -0.0537,-0.41506 -0.22375,-0.56896 -0.19633,-0.17754 -0.27031,-0.39767 -0.21188,-0.63045 0.10233,-0.40807 -0.0284,-0.48419 -1.11414,-0.64699 -0.52236,-0.0782 -0.76737,-0.19994 -0.83561,-0.41497 -0.0531,-0.16724 -0.24119,-0.30385 -0.41806,-0.30385 -0.25095,0 -0.29864,-0.0725 -0.21704,-0.3297 0.0616,-0.19396 -8e-4,-0.49149 -0.15348,-0.72347 -0.14207,-0.21675 -0.22237,-0.39428 -0.17829,-0.39428 0.044,0 0.009,-0.18585 -0.077,-0.41342 -0.13459,-0.35398 -0.0893,-0.48167 0.31212,-0.88315 0.25815,-0.25813 0.66313,-0.5434 0.90021,-0.63357 0.23709,-0.0902 0.46871,-0.30737 0.51469,-0.48316 0.0487,-0.18613 0.21935,-0.31988 0.40876,-0.31988 0.17891,0 0.42152,-0.12639 0.53899,-0.28112 0.20343,-0.26799 0.21372,-0.26799 0.21859,0 0.007,0.36735 0.49552,0.36526 0.5917,0 0.0709,-0.27159 0.62038,-0.34313 1.34307,-0.17467 0.15542,0.0363 0.22423,-0.0435 0.19378,-0.22479 -0.0324,-0.19252 0.0577,-0.28163 0.28526,-0.28163 0.29621,0 0.67914,-0.56967 0.62527,-0.93019 -0.0491,-0.32904 0.046,-0.51676 0.26202,-0.51676 0.13264,0 0.24133,0.10864 0.24133,0.24133 0,0.13393 0.14274,0.24082 0.32141,0.24082 0.17685,0 0.32195,-0.0704 0.32195,-0.15658 0,-0.17346 0.97028,-0.73427 1.17305,-0.678 0.0704,0.0196 0.20238,-0.17835 0.29353,-0.43976 0.0997,-0.28607 0.29829,-0.49509 0.49866,-0.52504 0.18312,-0.0273 0.41259,-0.19259 0.51007,-0.36743 0.0975,-0.17481 0.26926,-0.39166 0.38137,-0.48212 0.11215,-0.0905 0.24701,-0.53237 0.30025,-0.98187 0.0536,-0.45191 0.17952,-0.81751 0.28162,-0.81751 0.10149,0 0.37772,-0.0486 0.61391,-0.108 0.23749,-0.0596 0.474,-0.0356 0.52917,0.0537 0.0548,0.0886 0.24863,0.16174 0.43048,0.16174 0.18182,0 0.55734,0.24257 0.83457,0.53951 0.43709,0.46823 0.58335,0.53025 1.10173,0.46559 0.32879,-0.041 0.78491,-0.24768 1.01338,-0.4594 0.50173,-0.46498 0.48842,-0.46432 0.99787,-0.0636 0.54322,0.42727 0.79455,0.40539 0.88678,-0.077 0.056,-0.29268 -0.0243,-0.46461 -0.30284,-0.64698 -0.38518,-0.25236 -0.52054,-0.72298 -0.20773,-0.72298 0.0988,0 0.1283,-0.13737 0.0692,-0.32348 -0.084,-0.26484 -0.013,-0.34123 0.3886,-0.42169 0.27014,-0.054 0.45505,-0.15626 0.41084,-0.22788 -0.13099,-0.21202 0.1551,-0.30631 1.1529,-0.37878 0.3185,-0.0233 0.58883,-0.033 0.81701,-0.0284 z"
         style="opacity:1;fill:#5aa02c;fill-opacity:1;stroke:#000000;stroke-width:0.50449759;stroke-linecap:round;stroke-miterlimit:4;stroke-dasharray:none;stroke-dashoffset:0;stroke-opacity:1"
         inkscape:connector-curvature="0" />
      <path
         sodipodi:nodetypes="cc"
         inkscape:connector-curvature="0"
         id="path7128"
         d="m 274.89976,504.33744 c -0.13273,-29.05049 31.92796,-28.68923 31.90605,0"
         style="fill:none;stroke:#000000;stroke-width:3.2650001;stroke-linecap:butt;stroke-linejoin:miter;stroke-miterlimit:4;stroke-dasharray:none;stroke-opacity:1" />
    </g>
  </g>
</svg>
